<?xml version="1.0" encoding="utf-8" standalone="no"?>
<!DOCTYPE svg PUBLIC "-//W3C//DTD SVG 1.1//EN"
  "http://www.w3.org/Graphics/SVG/1.1/DTD/svg11.dtd">
<!-- Created with matplotlib (https://matplotlib.org/) -->
<svg height="345.6pt" version="1.1" viewBox="0 0 460.8 345.6" width="460.8pt" xmlns="http://www.w3.org/2000/svg" xmlns:xlink="http://www.w3.org/1999/xlink">
 <defs>
  <style type="text/css">
*{stroke-linecap:butt;stroke-linejoin:round;}
  </style>
 </defs>
 <g id="figure_1">
  <g id="patch_1">
   <path d="M 0 345.6 
L 460.8 345.6 
L 460.8 0 
L 0 0 
z
" style="fill:#ffffff;"/>
  </g>
  <g id="axes_1">
   <g id="patch_2">
    <path d="M 57.6 307.584 
L 414.72 307.584 
L 414.72 41.472 
L 57.6 41.472 
z
" style="fill:#ffffff;"/>
   </g>
   <g id="matplotlib.axis_1">
    <g id="xtick_1">
     <g id="line2d_1">
      <path clip-path="url(#p3525e3528b)" d="M 57.6 307.584 
L 57.6 41.472 
" style="fill:none;stroke:#b0b0b0;stroke-linecap:square;stroke-opacity:0.2;stroke-width:0.8;"/>
     </g>
     <g id="line2d_2">
      <defs>
       <path d="M 0 0 
L 0 3.5 
" id="mdb7566cbdb" style="stroke:#000000;stroke-width:0.8;"/>
      </defs>
      <g>
       <use style="stroke:#000000;stroke-width:0.8;" x="57.6" xlink:href="#mdb7566cbdb" y="307.584"/>
      </g>
     </g>
     <g id="text_1">
      <!-- 0 -->
      <defs>
       <path d="M 31.78125 66.40625 
Q 24.171875 66.40625 20.328125 58.90625 
Q 16.5 51.421875 16.5 36.375 
Q 16.5 21.390625 20.328125 13.890625 
Q 24.171875 6.390625 31.78125 6.390625 
Q 39.453125 6.390625 43.28125 13.890625 
Q 47.125 21.390625 47.125 36.375 
Q 47.125 51.421875 43.28125 58.90625 
Q 39.453125 66.40625 31.78125 66.40625 
z
M 31.78125 74.21875 
Q 44.046875 74.21875 50.515625 64.515625 
Q 56.984375 54.828125 56.984375 36.375 
Q 56.984375 17.96875 50.515625 8.265625 
Q 44.046875 -1.421875 31.78125 -1.421875 
Q 19.53125 -1.421875 13.0625 8.265625 
Q 6.59375 17.96875 6.59375 36.375 
Q 6.59375 54.828125 13.0625 64.515625 
Q 19.53125 74.21875 31.78125 74.21875 
z
" id="DejaVuSans-48"/>
      </defs>
      <g transform="translate(54.41875 322.182437)scale(0.1 -0.1)">
       <use xlink:href="#DejaVuSans-48"/>
      </g>
     </g>
    </g>
    <g id="xtick_2">
     <g id="line2d_3">
      <path clip-path="url(#p3525e3528b)" d="M 129.745455 307.584 
L 129.745455 41.472 
" style="fill:none;stroke:#b0b0b0;stroke-linecap:square;stroke-opacity:0.2;stroke-width:0.8;"/>
     </g>
     <g id="line2d_4">
      <g>
       <use style="stroke:#000000;stroke-width:0.8;" x="129.745455" xlink:href="#mdb7566cbdb" y="307.584"/>
      </g>
     </g>
     <g id="text_2">
      <!-- 20 -->
      <defs>
       <path d="M 19.1875 8.296875 
L 53.609375 8.296875 
L 53.609375 0 
L 7.328125 0 
L 7.328125 8.296875 
Q 12.9375 14.109375 22.625 23.890625 
Q 32.328125 33.6875 34.8125 36.53125 
Q 39.546875 41.84375 41.421875 45.53125 
Q 43.3125 49.21875 43.3125 52.78125 
Q 43.3125 58.59375 39.234375 62.25 
Q 35.15625 65.921875 28.609375 65.921875 
Q 23.96875 65.921875 18.8125 64.3125 
Q 13.671875 62.703125 7.8125 59.421875 
L 7.8125 69.390625 
Q 13.765625 71.78125 18.9375 73 
Q 24.125 74.21875 28.421875 74.21875 
Q 39.75 74.21875 46.484375 68.546875 
Q 53.21875 62.890625 53.21875 53.421875 
Q 53.21875 48.921875 51.53125 44.890625 
Q 49.859375 40.875 45.40625 35.40625 
Q 44.1875 33.984375 37.640625 27.21875 
Q 31.109375 20.453125 19.1875 8.296875 
z
" id="DejaVuSans-50"/>
      </defs>
      <g transform="translate(123.382955 322.182437)scale(0.1 -0.1)">
       <use xlink:href="#DejaVuSans-50"/>
       <use x="63.623047" xlink:href="#DejaVuSans-48"/>
      </g>
     </g>
    </g>
    <g id="xtick_3">
     <g id="line2d_5">
      <path clip-path="url(#p3525e3528b)" d="M 201.890909 307.584 
L 201.890909 41.472 
" style="fill:none;stroke:#b0b0b0;stroke-linecap:square;stroke-opacity:0.2;stroke-width:0.8;"/>
     </g>
     <g id="line2d_6">
      <g>
       <use style="stroke:#000000;stroke-width:0.8;" x="201.890909" xlink:href="#mdb7566cbdb" y="307.584"/>
      </g>
     </g>
     <g id="text_3">
      <!-- 40 -->
      <defs>
       <path d="M 37.796875 64.3125 
L 12.890625 25.390625 
L 37.796875 25.390625 
z
M 35.203125 72.90625 
L 47.609375 72.90625 
L 47.609375 25.390625 
L 58.015625 25.390625 
L 58.015625 17.1875 
L 47.609375 17.1875 
L 47.609375 0 
L 37.796875 0 
L 37.796875 17.1875 
L 4.890625 17.1875 
L 4.890625 26.703125 
z
" id="DejaVuSans-52"/>
      </defs>
      <g transform="translate(195.528409 322.182437)scale(0.1 -0.1)">
       <use xlink:href="#DejaVuSans-52"/>
       <use x="63.623047" xlink:href="#DejaVuSans-48"/>
      </g>
     </g>
    </g>
    <g id="xtick_4">
     <g id="line2d_7">
      <path clip-path="url(#p3525e3528b)" d="M 274.036364 307.584 
L 274.036364 41.472 
" style="fill:none;stroke:#b0b0b0;stroke-linecap:square;stroke-opacity:0.2;stroke-width:0.8;"/>
     </g>
     <g id="line2d_8">
      <g>
       <use style="stroke:#000000;stroke-width:0.8;" x="274.036364" xlink:href="#mdb7566cbdb" y="307.584"/>
      </g>
     </g>
     <g id="text_4">
      <!-- 60 -->
      <defs>
       <path d="M 33.015625 40.375 
Q 26.375 40.375 22.484375 35.828125 
Q 18.609375 31.296875 18.609375 23.390625 
Q 18.609375 15.53125 22.484375 10.953125 
Q 26.375 6.390625 33.015625 6.390625 
Q 39.65625 6.390625 43.53125 10.953125 
Q 47.40625 15.53125 47.40625 23.390625 
Q 47.40625 31.296875 43.53125 35.828125 
Q 39.65625 40.375 33.015625 40.375 
z
M 52.59375 71.296875 
L 52.59375 62.3125 
Q 48.875 64.0625 45.09375 64.984375 
Q 41.3125 65.921875 37.59375 65.921875 
Q 27.828125 65.921875 22.671875 59.328125 
Q 17.53125 52.734375 16.796875 39.40625 
Q 19.671875 43.65625 24.015625 45.921875 
Q 28.375 48.1875 33.59375 48.1875 
Q 44.578125 48.1875 50.953125 41.515625 
Q 57.328125 34.859375 57.328125 23.390625 
Q 57.328125 12.15625 50.6875 5.359375 
Q 44.046875 -1.421875 33.015625 -1.421875 
Q 20.359375 -1.421875 13.671875 8.265625 
Q 6.984375 17.96875 6.984375 36.375 
Q 6.984375 53.65625 15.1875 63.9375 
Q 23.390625 74.21875 37.203125 74.21875 
Q 40.921875 74.21875 44.703125 73.484375 
Q 48.484375 72.75 52.59375 71.296875 
z
" id="DejaVuSans-54"/>
      </defs>
      <g transform="translate(267.673864 322.182437)scale(0.1 -0.1)">
       <use xlink:href="#DejaVuSans-54"/>
       <use x="63.623047" xlink:href="#DejaVuSans-48"/>
      </g>
     </g>
    </g>
    <g id="xtick_5">
     <g id="line2d_9">
      <path clip-path="url(#p3525e3528b)" d="M 346.181818 307.584 
L 346.181818 41.472 
" style="fill:none;stroke:#b0b0b0;stroke-linecap:square;stroke-opacity:0.2;stroke-width:0.8;"/>
     </g>
     <g id="line2d_10">
      <g>
       <use style="stroke:#000000;stroke-width:0.8;" x="346.181818" xlink:href="#mdb7566cbdb" y="307.584"/>
      </g>
     </g>
     <g id="text_5">
      <!-- 80 -->
      <defs>
       <path d="M 31.78125 34.625 
Q 24.75 34.625 20.71875 30.859375 
Q 16.703125 27.09375 16.703125 20.515625 
Q 16.703125 13.921875 20.71875 10.15625 
Q 24.75 6.390625 31.78125 6.390625 
Q 38.8125 6.390625 42.859375 10.171875 
Q 46.921875 13.96875 46.921875 20.515625 
Q 46.921875 27.09375 42.890625 30.859375 
Q 38.875 34.625 31.78125 34.625 
z
M 21.921875 38.8125 
Q 15.578125 40.375 12.03125 44.71875 
Q 8.5 49.078125 8.5 55.328125 
Q 8.5 64.0625 14.71875 69.140625 
Q 20.953125 74.21875 31.78125 74.21875 
Q 42.671875 74.21875 48.875 69.140625 
Q 55.078125 64.0625 55.078125 55.328125 
Q 55.078125 49.078125 51.53125 44.71875 
Q 48 40.375 41.703125 38.8125 
Q 48.828125 37.15625 52.796875 32.3125 
Q 56.78125 27.484375 56.78125 20.515625 
Q 56.78125 9.90625 50.3125 4.234375 
Q 43.84375 -1.421875 31.78125 -1.421875 
Q 19.734375 -1.421875 13.25 4.234375 
Q 6.78125 9.90625 6.78125 20.515625 
Q 6.78125 27.484375 10.78125 32.3125 
Q 14.796875 37.15625 21.921875 38.8125 
z
M 18.3125 54.390625 
Q 18.3125 48.734375 21.84375 45.5625 
Q 25.390625 42.390625 31.78125 42.390625 
Q 38.140625 42.390625 41.71875 45.5625 
Q 45.3125 48.734375 45.3125 54.390625 
Q 45.3125 60.0625 41.71875 63.234375 
Q 38.140625 66.40625 31.78125 66.40625 
Q 25.390625 66.40625 21.84375 63.234375 
Q 18.3125 60.0625 18.3125 54.390625 
z
" id="DejaVuSans-56"/>
      </defs>
      <g transform="translate(339.819318 322.182437)scale(0.1 -0.1)">
       <use xlink:href="#DejaVuSans-56"/>
       <use x="63.623047" xlink:href="#DejaVuSans-48"/>
      </g>
     </g>
    </g>
    <g id="text_6">
     <!-- t -->
     <defs>
      <path d="M 18.3125 70.21875 
L 18.3125 54.6875 
L 36.8125 54.6875 
L 36.8125 47.703125 
L 18.3125 47.703125 
L 18.3125 18.015625 
Q 18.3125 11.328125 20.140625 9.421875 
Q 21.96875 7.515625 27.59375 7.515625 
L 36.8125 7.515625 
L 36.8125 0 
L 27.59375 0 
Q 17.1875 0 13.234375 3.875 
Q 9.28125 7.765625 9.28125 18.015625 
L 9.28125 47.703125 
L 2.6875 47.703125 
L 2.6875 54.6875 
L 9.28125 54.6875 
L 9.28125 70.21875 
z
" id="DejaVuSans-116"/>
     </defs>
     <g transform="translate(234.199844 335.860562)scale(0.1 -0.1)">
      <use xlink:href="#DejaVuSans-116"/>
     </g>
    </g>
   </g>
   <g id="matplotlib.axis_2">
    <g id="ytick_1">
     <g id="line2d_11">
      <path clip-path="url(#p3525e3528b)" d="M 57.6 302.825454 
L 414.72 302.825454 
" style="fill:none;stroke:#b0b0b0;stroke-linecap:square;stroke-opacity:0.2;stroke-width:0.8;"/>
     </g>
     <g id="line2d_12">
      <defs>
       <path d="M 0 0 
L -3.5 0 
" id="m1035099d2f" style="stroke:#000000;stroke-width:0.8;"/>
      </defs>
      <g>
       <use style="stroke:#000000;stroke-width:0.8;" x="57.6" xlink:href="#m1035099d2f" y="302.825454"/>
      </g>
     </g>
     <g id="text_7">
      <!-- −6 -->
      <defs>
       <path d="M 10.59375 35.5 
L 73.1875 35.5 
L 73.1875 27.203125 
L 10.59375 27.203125 
z
" id="DejaVuSans-8722"/>
      </defs>
      <g transform="translate(35.857813 306.624673)scale(0.1 -0.1)">
       <use xlink:href="#DejaVuSans-8722"/>
       <use x="83.789062" xlink:href="#DejaVuSans-54"/>
      </g>
     </g>
    </g>
    <g id="ytick_2">
     <g id="line2d_13">
      <path clip-path="url(#p3525e3528b)" d="M 57.6 260.059636 
L 414.72 260.059636 
" style="fill:none;stroke:#b0b0b0;stroke-linecap:square;stroke-opacity:0.2;stroke-width:0.8;"/>
     </g>
     <g id="line2d_14">
      <g>
       <use style="stroke:#000000;stroke-width:0.8;" x="57.6" xlink:href="#m1035099d2f" y="260.059636"/>
      </g>
     </g>
     <g id="text_8">
      <!-- −4 -->
      <g transform="translate(35.857813 263.858855)scale(0.1 -0.1)">
       <use xlink:href="#DejaVuSans-8722"/>
       <use x="83.789062" xlink:href="#DejaVuSans-52"/>
      </g>
     </g>
    </g>
    <g id="ytick_3">
     <g id="line2d_15">
      <path clip-path="url(#p3525e3528b)" d="M 57.6 217.293818 
L 414.72 217.293818 
" style="fill:none;stroke:#b0b0b0;stroke-linecap:square;stroke-opacity:0.2;stroke-width:0.8;"/>
     </g>
     <g id="line2d_16">
      <g>
       <use style="stroke:#000000;stroke-width:0.8;" x="57.6" xlink:href="#m1035099d2f" y="217.293818"/>
      </g>
     </g>
     <g id="text_9">
      <!-- −2 -->
      <g transform="translate(35.857813 221.093037)scale(0.1 -0.1)">
       <use xlink:href="#DejaVuSans-8722"/>
       <use x="83.789062" xlink:href="#DejaVuSans-50"/>
      </g>
     </g>
    </g>
    <g id="ytick_4">
     <g id="line2d_17">
      <path clip-path="url(#p3525e3528b)" d="M 57.6 174.528 
L 414.72 174.528 
" style="fill:none;stroke:#b0b0b0;stroke-linecap:square;stroke-opacity:0.2;stroke-width:0.8;"/>
     </g>
     <g id="line2d_18">
      <g>
       <use style="stroke:#000000;stroke-width:0.8;" x="57.6" xlink:href="#m1035099d2f" y="174.528"/>
      </g>
     </g>
     <g id="text_10">
      <!-- 0 -->
      <g transform="translate(44.2375 178.327219)scale(0.1 -0.1)">
       <use xlink:href="#DejaVuSans-48"/>
      </g>
     </g>
    </g>
    <g id="ytick_5">
     <g id="line2d_19">
      <path clip-path="url(#p3525e3528b)" d="M 57.6 131.762182 
L 414.72 131.762182 
" style="fill:none;stroke:#b0b0b0;stroke-linecap:square;stroke-opacity:0.2;stroke-width:0.8;"/>
     </g>
     <g id="line2d_20">
      <g>
       <use style="stroke:#000000;stroke-width:0.8;" x="57.6" xlink:href="#m1035099d2f" y="131.762182"/>
      </g>
     </g>
     <g id="text_11">
      <!-- 2 -->
      <g transform="translate(44.2375 135.561401)scale(0.1 -0.1)">
       <use xlink:href="#DejaVuSans-50"/>
      </g>
     </g>
    </g>
    <g id="ytick_6">
     <g id="line2d_21">
      <path clip-path="url(#p3525e3528b)" d="M 57.6 88.996364 
L 414.72 88.996364 
" style="fill:none;stroke:#b0b0b0;stroke-linecap:square;stroke-opacity:0.2;stroke-width:0.8;"/>
     </g>
     <g id="line2d_22">
      <g>
       <use style="stroke:#000000;stroke-width:0.8;" x="57.6" xlink:href="#m1035099d2f" y="88.996364"/>
      </g>
     </g>
     <g id="text_12">
      <!-- 4 -->
      <g transform="translate(44.2375 92.795582)scale(0.1 -0.1)">
       <use xlink:href="#DejaVuSans-52"/>
      </g>
     </g>
    </g>
    <g id="ytick_7">
     <g id="line2d_23">
      <path clip-path="url(#p3525e3528b)" d="M 57.6 46.230546 
L 414.72 46.230546 
" style="fill:none;stroke:#b0b0b0;stroke-linecap:square;stroke-opacity:0.2;stroke-width:0.8;"/>
     </g>
     <g id="line2d_24">
      <g>
       <use style="stroke:#000000;stroke-width:0.8;" x="57.6" xlink:href="#m1035099d2f" y="46.230546"/>
      </g>
     </g>
     <g id="text_13">
      <!-- 6 -->
      <g transform="translate(44.2375 50.029764)scale(0.1 -0.1)">
       <use xlink:href="#DejaVuSans-54"/>
      </g>
     </g>
    </g>
   </g>
   <g id="line2d_25">
    <path clip-path="url(#p3525e3528b)" d="M 57.6 174.528 
L 61.207273 169.781037 
L 64.814545 165.052808 
L 68.421818 160.361973 
L 72.029091 155.727045 
L 75.636364 151.166315 
L 79.243636 146.697784 
L 82.850909 142.339086 
L 86.458182 138.107422 
L 90.065455 134.019494 
L 93.672727 130.091435 
L 97.28 126.338746 
L 100.887273 122.776239 
L 104.494545 119.417972 
L 108.101818 116.277199 
L 111.709091 113.366315 
L 115.316364 110.696809 
L 118.923636 108.279215 
L 122.530909 106.123075 
L 126.138182 104.236898 
L 129.745455 102.628127 
L 133.352727 101.303113 
L 136.96 100.267084 
L 140.567273 99.524129 
L 144.174545 99.077179 
L 147.781818 98.928 
L 151.389091 99.077179 
L 154.996364 99.524129 
L 158.603636 100.267084 
L 162.210909 101.303113 
L 165.818182 102.628127 
L 169.425455 104.236898 
L 173.032727 106.123075 
L 176.64 108.279215 
L 180.247273 110.696809 
L 183.854545 113.366315 
L 187.461818 116.277199 
L 191.069091 119.417972 
L 194.676364 122.776239 
L 198.283636 126.338746 
L 201.890909 130.091435 
L 205.498182 134.019494 
L 209.105455 138.107422 
L 212.712727 142.339086 
L 216.32 146.697784 
L 219.927273 151.166315 
L 223.534545 155.727045 
L 227.141818 160.361973 
L 230.749091 165.052808 
L 234.356364 169.781037 
L 237.963636 174.528 
L 241.570909 179.274963 
L 245.178182 184.003192 
L 248.785455 188.694027 
L 252.392727 193.328955 
L 256 197.889685 
L 259.607273 202.358216 
L 263.214545 206.716914 
L 266.821818 210.948578 
L 270.429091 215.036506 
L 274.036364 218.964565 
L 277.643636 222.717254 
L 281.250909 226.279761 
L 284.858182 229.638028 
L 288.465455 232.778801 
L 292.072727 235.689685 
L 295.68 238.359191 
L 299.287273 240.776785 
L 302.894545 242.932925 
L 306.501818 244.819102 
L 310.109091 246.427873 
L 313.716364 247.752887 
L 317.323636 248.788916 
L 320.930909 249.531871 
L 324.538182 249.978821 
L 328.145455 250.128 
L 331.752727 249.978821 
L 335.36 249.531871 
L 338.967273 248.788916 
L 342.574545 247.752887 
L 346.181818 246.427873 
L 349.789091 244.819102 
L 353.396364 242.932925 
L 357.003636 240.776785 
L 360.610909 238.359191 
L 364.218182 235.689685 
L 367.825455 232.778801 
L 371.432727 229.638028 
L 375.04 226.279761 
L 378.647273 222.717254 
L 382.254545 218.964565 
L 385.861818 215.036506 
L 389.469091 210.948578 
L 393.076364 206.716914 
L 396.683636 202.358216 
L 400.290909 197.889685 
L 403.898182 193.328955 
L 407.505455 188.694027 
L 411.112727 184.003192 
L 414.72 179.274963 
" style="fill:none;stroke:#1f77b4;stroke-linecap:square;stroke-width:1.5;"/>
   </g>
   <g id="line2d_26">
    <path clip-path="url(#p3525e3528b)" d="M 57.6 174.528 
L 61.207273 168.831644 
L 64.814545 163.157769 
L 68.421818 157.528767 
L 72.029091 151.966853 
L 75.636364 146.493978 
L 79.243636 141.131741 
L 82.850909 135.901303 
L 86.458182 130.823307 
L 90.065455 125.917793 
L 93.672727 121.204122 
L 97.28 116.700896 
L 100.887273 112.425887 
L 104.494545 108.395966 
L 108.101818 104.627039 
L 111.709091 101.133978 
L 115.316364 97.930571 
L 118.923636 95.029458 
L 122.530909 92.44209 
L 126.138182 90.178677 
L 129.745455 88.248153 
L 133.352727 86.658136 
L 136.96 85.414901 
L 140.567273 84.523354 
L 144.174545 83.987015 
L 147.781818 83.808 
L 151.389091 83.987015 
L 154.996364 84.523354 
L 158.603636 85.414901 
L 162.210909 86.658136 
L 165.818182 88.248153 
L 169.425455 90.178677 
L 173.032727 92.44209 
L 176.64 95.029458 
L 180.247273 97.930571 
L 183.854545 101.133978 
L 187.461818 104.627039 
L 191.069091 108.395966 
L 194.676364 112.425887 
L 198.283636 116.700896 
L 201.890909 121.204122 
L 205.498182 125.917793 
L 209.105455 130.823307 
L 212.712727 135.901303 
L 216.32 141.131741 
L 219.927273 146.493978 
L 223.534545 151.966853 
L 227.141818 157.528767 
L 230.749091 163.157769 
L 234.356364 168.831644 
L 237.963636 174.528 
L 241.570909 180.224356 
L 245.178182 185.898231 
L 248.785455 191.527233 
L 252.392727 197.089147 
L 256 202.562022 
L 259.607273 207.924259 
L 263.214545 213.154697 
L 266.821818 218.232693 
L 270.429091 223.138207 
L 274.036364 227.851878 
L 277.643636 232.355104 
L 281.250909 236.630113 
L 284.858182 240.660034 
L 288.465455 244.428961 
L 292.072727 247.922022 
L 295.68 251.125429 
L 299.287273 254.026542 
L 302.894545 256.61391 
L 306.501818 258.877323 
L 310.109091 260.807847 
L 313.716364 262.397864 
L 317.323636 263.641099 
L 320.930909 264.532646 
L 324.538182 265.068985 
L 328.145455 265.248 
L 331.752727 265.068985 
L 335.36 264.532646 
L 338.967273 263.641099 
L 342.574545 262.397864 
L 346.181818 260.807847 
L 349.789091 258.877323 
L 353.396364 256.61391 
L 357.003636 254.026542 
L 360.610909 251.125429 
L 364.218182 247.922022 
L 367.825455 244.428961 
L 371.432727 240.660034 
L 375.04 236.630113 
L 378.647273 232.355104 
L 382.254545 227.851878 
L 385.861818 223.138207 
L 389.469091 218.232693 
L 393.076364 213.154697 
L 396.683636 207.924259 
L 400.290909 202.562022 
L 403.898182 197.089147 
L 407.505455 191.527233 
L 411.112727 185.898231 
L 414.72 180.224356 
" style="fill:none;stroke:#ff7f0e;stroke-linecap:square;stroke-width:1.5;"/>
   </g>
   <g id="line2d_27">
    <path clip-path="url(#p3525e3528b)" d="M 57.6 174.528 
L 61.207273 167.882251 
L 64.814545 161.262731 
L 68.421818 154.695562 
L 72.029091 148.206662 
L 75.636364 141.821641 
L 79.243636 135.565697 
L 82.850909 129.46352 
L 86.458182 123.539191 
L 90.065455 117.816092 
L 93.672727 112.316809 
L 97.28 107.063045 
L 100.887273 102.075534 
L 104.494545 97.37396 
L 108.101818 92.976878 
L 111.709091 88.901641 
L 115.316364 85.164332 
L 118.923636 81.779701 
L 122.530909 78.761105 
L 126.138182 76.120457 
L 129.745455 73.868178 
L 133.352727 72.013158 
L 136.96 70.562717 
L 140.567273 69.52258 
L 144.174545 68.896851 
L 147.781818 68.688 
L 151.389091 68.896851 
L 154.996364 69.52258 
L 158.603636 70.562717 
L 162.210909 72.013158 
L 165.818182 73.868178 
L 169.425455 76.120457 
L 173.032727 78.761105 
L 176.64 81.779701 
L 180.247273 85.164332 
L 183.854545 88.901641 
L 187.461818 92.976878 
L 191.069091 97.37396 
L 194.676364 102.075534 
L 198.283636 107.063045 
L 201.890909 112.316809 
L 205.498182 117.816092 
L 209.105455 123.539191 
L 212.712727 129.46352 
L 216.32 135.565697 
L 219.927273 141.821641 
L 223.534545 148.206662 
L 227.141818 154.695562 
L 230.749091 161.262731 
L 234.356364 167.882251 
L 237.963636 174.528 
L 241.570909 181.173749 
L 245.178182 187.793269 
L 248.785455 194.360438 
L 252.392727 200.849338 
L 256 207.234359 
L 259.607273 213.490303 
L 263.214545 219.59248 
L 266.821818 225.516809 
L 270.429091 231.239908 
L 274.036364 236.739191 
L 277.643636 241.992955 
L 281.250909 246.980466 
L 284.858182 251.68204 
L 288.465455 256.079122 
L 292.072727 260.154359 
L 295.68 263.891668 
L 299.287273 267.276299 
L 302.894545 270.294895 
L 306.501818 272.935543 
L 310.109091 275.187822 
L 313.716364 277.042842 
L 317.323636 278.493283 
L 320.930909 279.53342 
L 324.538182 280.159149 
L 328.145455 280.368 
L 331.752727 280.159149 
L 335.36 279.53342 
L 338.967273 278.493283 
L 342.574545 277.042842 
L 346.181818 275.187822 
L 349.789091 272.935543 
L 353.396364 270.294895 
L 357.003636 267.276299 
L 360.610909 263.891668 
L 364.218182 260.154359 
L 367.825455 256.079122 
L 371.432727 251.68204 
L 375.04 246.980466 
L 378.647273 241.992955 
L 382.254545 236.739191 
L 385.861818 231.239908 
L 389.469091 225.516809 
L 393.076364 219.59248 
L 396.683636 213.490303 
L 400.290909 207.234359 
L 403.898182 200.849338 
L 407.505455 194.360438 
L 411.112727 187.793269 
L 414.72 181.173749 
" style="fill:none;stroke:#2ca02c;stroke-linecap:square;stroke-width:1.5;"/>
   </g>
   <g id="line2d_28">
    <path clip-path="url(#p3525e3528b)" d="M 57.6 174.528 
L 61.207273 166.932859 
L 64.814545 159.367692 
L 68.421818 151.862356 
L 72.029091 144.446471 
L 75.636364 137.149304 
L 79.243636 129.999654 
L 82.850909 123.025737 
L 86.458182 116.255076 
L 90.065455 109.714391 
L 93.672727 103.429496 
L 97.28 97.425194 
L 100.887273 91.725182 
L 104.494545 86.351955 
L 108.101818 81.326718 
L 111.709091 76.669304 
L 115.316364 72.398094 
L 118.923636 68.529944 
L 122.530909 65.08012 
L 126.138182 62.062236 
L 129.745455 59.488204 
L 133.352727 57.368181 
L 136.96 55.710534 
L 140.567273 54.521806 
L 144.174545 53.806687 
L 147.781818 53.568 
L 151.389091 53.806687 
L 154.996364 54.521806 
L 158.603636 55.710534 
L 162.210909 57.368181 
L 165.818182 59.488204 
L 169.425455 62.062236 
L 173.032727 65.08012 
L 176.64 68.529944 
L 180.247273 72.398094 
L 183.854545 76.669304 
L 187.461818 81.326718 
L 191.069091 86.351955 
L 194.676364 91.725182 
L 198.283636 97.425194 
L 201.890909 103.429496 
L 205.498182 109.714391 
L 209.105455 116.255076 
L 212.712727 123.025737 
L 216.32 129.999654 
L 219.927273 137.149304 
L 223.534545 144.446471 
L 227.141818 151.862356 
L 230.749091 159.367692 
L 234.356364 166.932859 
L 237.963636 174.528 
L 241.570909 182.123141 
L 245.178182 189.688308 
L 248.785455 197.193644 
L 252.392727 204.609529 
L 256 211.906696 
L 259.607273 219.056346 
L 263.214545 226.030263 
L 266.821818 232.800924 
L 270.429091 239.341609 
L 274.036364 245.626504 
L 277.643636 251.630806 
L 281.250909 257.330818 
L 284.858182 262.704045 
L 288.465455 267.729282 
L 292.072727 272.386696 
L 295.68 276.657906 
L 299.287273 280.526056 
L 302.894545 283.97588 
L 306.501818 286.993764 
L 310.109091 289.567796 
L 313.716364 291.687819 
L 317.323636 293.345466 
L 320.930909 294.534194 
L 324.538182 295.249313 
L 328.145455 295.488 
L 331.752727 295.249313 
L 335.36 294.534194 
L 338.967273 293.345466 
L 342.574545 291.687819 
L 346.181818 289.567796 
L 349.789091 286.993764 
L 353.396364 283.97588 
L 357.003636 280.526056 
L 360.610909 276.657906 
L 364.218182 272.386696 
L 367.825455 267.729282 
L 371.432727 262.704045 
L 375.04 257.330818 
L 378.647273 251.630806 
L 382.254545 245.626504 
L 385.861818 239.341609 
L 389.469091 232.800924 
L 393.076364 226.030263 
L 396.683636 219.056346 
L 400.290909 211.906696 
L 403.898182 204.609529 
L 407.505455 197.193644 
L 411.112727 189.688308 
L 414.72 182.123141 
" style="fill:none;stroke:#d62728;stroke-linecap:square;stroke-width:1.5;"/>
   </g>
   <g id="patch_3">
    <path d="M 57.6 307.584 
L 57.6 41.472 
" style="fill:none;stroke:#000000;stroke-linecap:square;stroke-linejoin:miter;stroke-width:0.8;"/>
   </g>
   <g id="patch_4">
    <path d="M 414.72 307.584 
L 414.72 41.472 
" style="fill:none;stroke:#000000;stroke-linecap:square;stroke-linejoin:miter;stroke-width:0.8;"/>
   </g>
   <g id="patch_5">
    <path d="M 57.6 307.584 
L 414.72 307.584 
" style="fill:none;stroke:#000000;stroke-linecap:square;stroke-linejoin:miter;stroke-width:0.8;"/>
   </g>
   <g id="patch_6">
    <path d="M 57.6 41.472 
L 414.72 41.472 
" style="fill:none;stroke:#000000;stroke-linecap:square;stroke-linejoin:miter;stroke-width:0.8;"/>
   </g>
   <g id="legend_1">
    <g id="patch_7">
     <path d="M 321.95125 123.975125 
L 407.72 123.975125 
Q 409.72 123.975125 409.72 121.975125 
L 409.72 48.472 
Q 409.72 46.472 407.72 46.472 
L 321.95125 46.472 
Q 319.95125 46.472 319.95125 48.472 
L 319.95125 121.975125 
Q 319.95125 123.975125 321.95125 123.975125 
z
" style="fill:#ffffff;opacity:0.8;stroke:#cccccc;stroke-linejoin:miter;"/>
    </g>
    <g id="text_14">
     <!-- y,H -->
     <defs>
      <path d="M 32.171875 -5.078125 
Q 28.375 -14.84375 24.75 -17.8125 
Q 21.140625 -20.796875 15.09375 -20.796875 
L 7.90625 -20.796875 
L 7.90625 -13.28125 
L 13.1875 -13.28125 
Q 16.890625 -13.28125 18.9375 -11.515625 
Q 21 -9.765625 23.484375 -3.21875 
L 25.09375 0.875 
L 2.984375 54.6875 
L 12.5 54.6875 
L 29.59375 11.921875 
L 46.6875 54.6875 
L 56.203125 54.6875 
z
" id="DejaVuSans-121"/>
      <path d="M 11.71875 12.40625 
L 22.015625 12.40625 
L 22.015625 4 
L 14.015625 -11.625 
L 7.71875 -11.625 
L 11.71875 4 
z
" id="DejaVuSans-44"/>
      <path d="M 9.8125 72.90625 
L 19.671875 72.90625 
L 19.671875 43.015625 
L 55.515625 43.015625 
L 55.515625 72.90625 
L 65.375 72.90625 
L 65.375 0 
L 55.515625 0 
L 55.515625 34.71875 
L 19.671875 34.71875 
L 19.671875 0 
L 9.8125 0 
z
" id="DejaVuSans-72"/>
     </defs>
     <g transform="translate(356.527031 58.070438)scale(0.1 -0.1)">
      <use xlink:href="#DejaVuSans-121"/>
      <use x="59.179688" xlink:href="#DejaVuSans-44"/>
      <use x="90.966797" xlink:href="#DejaVuSans-72"/>
     </g>
    </g>
    <g id="line2d_29">
     <path d="M 323.95125 69.248563 
L 343.95125 69.248563 
" style="fill:none;stroke:#1f77b4;stroke-linecap:square;stroke-width:1.5;"/>
    </g>
    <g id="line2d_30"/>
    <g id="text_15">
     <!-- (h_extx, 5) -->
     <defs>
      <path d="M 31 75.875 
Q 24.46875 64.65625 21.28125 53.65625 
Q 18.109375 42.671875 18.109375 31.390625 
Q 18.109375 20.125 21.3125 9.0625 
Q 24.515625 -2 31 -13.1875 
L 23.1875 -13.1875 
Q 15.875 -1.703125 12.234375 9.375 
Q 8.59375 20.453125 8.59375 31.390625 
Q 8.59375 42.28125 12.203125 53.3125 
Q 15.828125 64.359375 23.1875 75.875 
z
" id="DejaVuSans-40"/>
      <path d="M 54.890625 33.015625 
L 54.890625 0 
L 45.90625 0 
L 45.90625 32.71875 
Q 45.90625 40.484375 42.875 44.328125 
Q 39.84375 48.1875 33.796875 48.1875 
Q 26.515625 48.1875 22.3125 43.546875 
Q 18.109375 38.921875 18.109375 30.90625 
L 18.109375 0 
L 9.078125 0 
L 9.078125 75.984375 
L 18.109375 75.984375 
L 18.109375 46.1875 
Q 21.34375 51.125 25.703125 53.5625 
Q 30.078125 56 35.796875 56 
Q 45.21875 56 50.046875 50.171875 
Q 54.890625 44.34375 54.890625 33.015625 
z
" id="DejaVuSans-104"/>
      <path d="M 50.984375 -16.609375 
L 50.984375 -23.578125 
L -0.984375 -23.578125 
L -0.984375 -16.609375 
z
" id="DejaVuSans-95"/>
      <path d="M 56.203125 29.59375 
L 56.203125 25.203125 
L 14.890625 25.203125 
Q 15.484375 15.921875 20.484375 11.0625 
Q 25.484375 6.203125 34.421875 6.203125 
Q 39.59375 6.203125 44.453125 7.46875 
Q 49.3125 8.734375 54.109375 11.28125 
L 54.109375 2.78125 
Q 49.265625 0.734375 44.1875 -0.34375 
Q 39.109375 -1.421875 33.890625 -1.421875 
Q 20.796875 -1.421875 13.15625 6.1875 
Q 5.515625 13.8125 5.515625 26.8125 
Q 5.515625 40.234375 12.765625 48.109375 
Q 20.015625 56 32.328125 56 
Q 43.359375 56 49.78125 48.890625 
Q 56.203125 41.796875 56.203125 29.59375 
z
M 47.21875 32.234375 
Q 47.125 39.59375 43.09375 43.984375 
Q 39.0625 48.390625 32.421875 48.390625 
Q 24.90625 48.390625 20.390625 44.140625 
Q 15.875 39.890625 15.1875 32.171875 
z
" id="DejaVuSans-101"/>
      <path d="M 54.890625 54.6875 
L 35.109375 28.078125 
L 55.90625 0 
L 45.3125 0 
L 29.390625 21.484375 
L 13.484375 0 
L 2.875 0 
L 24.125 28.609375 
L 4.6875 54.6875 
L 15.28125 54.6875 
L 29.78125 35.203125 
L 44.28125 54.6875 
z
" id="DejaVuSans-120"/>
      <path id="DejaVuSans-32"/>
      <path d="M 10.796875 72.90625 
L 49.515625 72.90625 
L 49.515625 64.59375 
L 19.828125 64.59375 
L 19.828125 46.734375 
Q 21.96875 47.46875 24.109375 47.828125 
Q 26.265625 48.1875 28.421875 48.1875 
Q 40.625 48.1875 47.75 41.5 
Q 54.890625 34.8125 54.890625 23.390625 
Q 54.890625 11.625 47.5625 5.09375 
Q 40.234375 -1.421875 26.90625 -1.421875 
Q 22.3125 -1.421875 17.546875 -0.640625 
Q 12.796875 0.140625 7.71875 1.703125 
L 7.71875 11.625 
Q 12.109375 9.234375 16.796875 8.0625 
Q 21.484375 6.890625 26.703125 6.890625 
Q 35.15625 6.890625 40.078125 11.328125 
Q 45.015625 15.765625 45.015625 23.390625 
Q 45.015625 31 40.078125 35.4375 
Q 35.15625 39.890625 26.703125 39.890625 
Q 22.75 39.890625 18.8125 39.015625 
Q 14.890625 38.140625 10.796875 36.28125 
z
" id="DejaVuSans-53"/>
      <path d="M 8.015625 75.875 
L 15.828125 75.875 
Q 23.140625 64.359375 26.78125 53.3125 
Q 30.421875 42.28125 30.421875 31.390625 
Q 30.421875 20.453125 26.78125 9.375 
Q 23.140625 -1.703125 15.828125 -13.1875 
L 8.015625 -13.1875 
Q 14.5 -2 17.703125 9.0625 
Q 20.90625 20.125 20.90625 31.390625 
Q 20.90625 42.671875 17.703125 53.65625 
Q 14.5 64.65625 8.015625 75.875 
z
" id="DejaVuSans-41"/>
     </defs>
     <g transform="translate(351.95125 72.748563)scale(0.1 -0.1)">
      <use xlink:href="#DejaVuSans-40"/>
      <use x="39.013672" xlink:href="#DejaVuSans-104"/>
      <use x="102.392578" xlink:href="#DejaVuSans-95"/>
      <use x="152.392578" xlink:href="#DejaVuSans-101"/>
      <use x="213.900391" xlink:href="#DejaVuSans-120"/>
      <use x="273.080078" xlink:href="#DejaVuSans-116"/>
      <use x="312.289062" xlink:href="#DejaVuSans-120"/>
      <use x="371.46875" xlink:href="#DejaVuSans-44"/>
      <use x="403.255859" xlink:href="#DejaVuSans-32"/>
      <use x="435.042969" xlink:href="#DejaVuSans-53"/>
      <use x="498.666016" xlink:href="#DejaVuSans-41"/>
     </g>
    </g>
    <g id="line2d_31">
     <path d="M 323.95125 84.204813 
L 343.95125 84.204813 
" style="fill:none;stroke:#ff7f0e;stroke-linecap:square;stroke-width:1.5;"/>
    </g>
    <g id="line2d_32"/>
    <g id="text_16">
     <!-- (h_extx, 6) -->
     <g transform="translate(351.95125 87.704813)scale(0.1 -0.1)">
      <use xlink:href="#DejaVuSans-40"/>
      <use x="39.013672" xlink:href="#DejaVuSans-104"/>
      <use x="102.392578" xlink:href="#DejaVuSans-95"/>
      <use x="152.392578" xlink:href="#DejaVuSans-101"/>
      <use x="213.900391" xlink:href="#DejaVuSans-120"/>
      <use x="273.080078" xlink:href="#DejaVuSans-116"/>
      <use x="312.289062" xlink:href="#DejaVuSans-120"/>
      <use x="371.46875" xlink:href="#DejaVuSans-44"/>
      <use x="403.255859" xlink:href="#DejaVuSans-32"/>
      <use x="435.042969" xlink:href="#DejaVuSans-54"/>
      <use x="498.666016" xlink:href="#DejaVuSans-41"/>
     </g>
    </g>
    <g id="line2d_33">
     <path d="M 323.95125 99.161063 
L 343.95125 99.161063 
" style="fill:none;stroke:#2ca02c;stroke-linecap:square;stroke-width:1.5;"/>
    </g>
    <g id="line2d_34"/>
    <g id="text_17">
     <!-- (h_extx, 7) -->
     <defs>
      <path d="M 8.203125 72.90625 
L 55.078125 72.90625 
L 55.078125 68.703125 
L 28.609375 0 
L 18.3125 0 
L 43.21875 64.59375 
L 8.203125 64.59375 
z
" id="DejaVuSans-55"/>
     </defs>
     <g transform="translate(351.95125 102.661063)scale(0.1 -0.1)">
      <use xlink:href="#DejaVuSans-40"/>
      <use x="39.013672" xlink:href="#DejaVuSans-104"/>
      <use x="102.392578" xlink:href="#DejaVuSans-95"/>
      <use x="152.392578" xlink:href="#DejaVuSans-101"/>
      <use x="213.900391" xlink:href="#DejaVuSans-120"/>
      <use x="273.080078" xlink:href="#DejaVuSans-116"/>
      <use x="312.289062" xlink:href="#DejaVuSans-120"/>
      <use x="371.46875" xlink:href="#DejaVuSans-44"/>
      <use x="403.255859" xlink:href="#DejaVuSans-32"/>
      <use x="435.042969" xlink:href="#DejaVuSans-55"/>
      <use x="498.666016" xlink:href="#DejaVuSans-41"/>
     </g>
    </g>
    <g id="line2d_35">
     <path d="M 323.95125 114.117313 
L 343.95125 114.117313 
" style="fill:none;stroke:#d62728;stroke-linecap:square;stroke-width:1.5;"/>
    </g>
    <g id="line2d_36"/>
    <g id="text_18">
     <!-- (h_extx, 8) -->
     <g transform="translate(351.95125 117.617313)scale(0.1 -0.1)">
      <use xlink:href="#DejaVuSans-40"/>
      <use x="39.013672" xlink:href="#DejaVuSans-104"/>
      <use x="102.392578" xlink:href="#DejaVuSans-95"/>
      <use x="152.392578" xlink:href="#DejaVuSans-101"/>
      <use x="213.900391" xlink:href="#DejaVuSans-120"/>
      <use x="273.080078" xlink:href="#DejaVuSans-116"/>
      <use x="312.289062" xlink:href="#DejaVuSans-120"/>
      <use x="371.46875" xlink:href="#DejaVuSans-44"/>
      <use x="403.255859" xlink:href="#DejaVuSans-32"/>
      <use x="435.042969" xlink:href="#DejaVuSans-56"/>
      <use x="498.666016" xlink:href="#DejaVuSans-41"/>
     </g>
    </g>
   </g>
  </g>
 </g>
 <defs>
  <clipPath id="p3525e3528b">
   <rect height="266.112" width="357.12" x="57.6" y="41.472"/>
  </clipPath>
 </defs>
</svg>
